# xmcd
#
# Track frame offsets:
#   150
#   21410
#   44138
#   65524
#   89062
#   106549
#   126675
#   146719
#   166972
#   195375
#   218905
#
# Disc length: 4484 seconds
#
# Revision: 0
# Processed by: cddbd v1.4PL0 Copyright (c) Steve Scherf et al.
# Submitted via: uFREEDB 1.6.0
#
DISCID=aa11820b
DTITLE=Boel and Hall - Boel and Hall
DYEAR=2000
DGENRE=Blues
TTITLE0=Change of a lifetime
TTITLE1=Why don't you come around
TTITLE2=Let's go out tonight
TTITLE3=Can't help myself
TTITLE4=Between the lines
TTITLE5=Performing yhe heartache
TTITLE6=Stay with me
TTITLE7=Blood and honey
TTITLE8=Tender to grey
TTITLE9=The last song in the world
TTITLE10=Hall video footage (enchanced material)
EXTD=
EXTT0=
EXTT1=
EXTT2=
EXTT3=
EXTT4=
EXTT5=
EXTT6=
EXTT7=
EXTT8=
EXTT9=
EXTT10=
PLAYORDER=
